<svg viewBox="0 0 72 10" fill="none" xmlns="http://www.w3.org/2000/svg">
<path d="M2.88 9H0.72V0.599999H7.38V2.28H2.88V4.26H6.42V5.94H2.88V9ZM12.18 9H7.86V7.32H8.94V2.28H7.86V0.599999H12.18V2.28H11.1V7.32H12.18V9ZM15.4191 7.32H19.7991V9H13.2591V0.599999H15.4191V7.32ZM27.8419 4.32L26.1619 7.32H24.4819L22.8019 4.32V9H20.6419V0.599999H22.9219L25.3219 5.04L27.7219 0.599999H30.0019V9H27.8419V4.32ZM32.9466 9H30.6066L33.7866 0.599999H36.1866L39.3666 9H37.0266L36.4866 7.5H33.4866L32.9466 9ZM34.0266 5.94H35.9466L34.9866 3.12L34.0266 5.94ZM46.2117 8.88C44.4277 9.04 42.9477 9.12 41.7717 9.12C40.9877 9.12 40.4117 8.936 40.0437 8.568C39.6757 8.2 39.4917 7.624 39.4917 6.84V3C39.4917 2.16 39.6797 1.552 40.0557 1.176C40.4397 0.792 41.0517 0.599999 41.8917 0.599999H46.2117V2.28H42.3717C41.8917 2.28 41.6517 2.52 41.6517 3V6.84C41.6517 7.024 41.7037 7.172 41.8077 7.284C41.9197 7.388 42.0597 7.44 42.2277 7.44C42.3957 7.44 42.5797 7.44 42.7797 7.44C42.9797 7.432 43.1877 7.424 43.4037 7.416C43.6197 7.408 43.8357 7.4 44.0517 7.392C44.2757 7.384 44.5597 7.368 44.9037 7.344C45.2557 7.32 45.6917 7.292 46.2117 7.26V8.88ZM52.5731 2.88C52.5731 2.4 52.3331 2.16 51.8531 2.16H49.8131C49.3331 2.16 49.0931 2.4 49.0931 2.88V6.72C49.0931 7.2 49.3331 7.44 49.8131 7.44H51.8531C52.3331 7.44 52.5731 7.2 52.5731 6.72V2.88ZM54.7331 6.72C54.7331 7.56 54.5411 8.172 54.1571 8.556C53.7811 8.932 53.1731 9.12 52.3331 9.12H49.3331C48.4931 9.12 47.8811 8.932 47.4971 8.556C47.1211 8.172 46.9331 7.56 46.9331 6.72V2.88C46.9331 2.04 47.1211 1.432 47.4971 1.056C47.8811 0.671999 48.4931 0.48 49.3331 0.48H52.3331C53.1731 0.48 53.7811 0.671999 54.1571 1.056C54.5411 1.432 54.7331 2.04 54.7331 2.88V6.72ZM55.9388 0.599999H60.9788C61.8188 0.599999 62.4268 0.792 62.8028 1.176C63.1868 1.552 63.3788 2.16 63.3788 3V4.08C63.3788 4.744 63.2668 5.26 63.0428 5.628C62.8268 5.996 62.4787 6.24 61.9987 6.36L63.4988 9H61.1588L59.7788 6.48H58.0988V9H55.9388V0.599999ZM61.2188 3C61.2188 2.52 60.9788 2.28 60.4988 2.28H58.0988V4.8H60.4988C60.9788 4.8 61.2188 4.56 61.2188 4.08V3ZM71.8955 9H69.6155L66.7355 3.96V9H64.5755V0.599999H66.8555L69.7355 5.64V0.599999H71.8955V9Z" fill="#FF601C"/>
</svg>
